<?xml version="1.0" encoding="UTF-8"?> <svg xmlns="http://www.w3.org/2000/svg" width="60" height="67" viewBox="0 0 60 67" fill="none"> <path fill-rule="evenodd" clip-rule="evenodd" d="M41.9747 24.6502C41.9747 22.3489 38.7576 22.3489 38.7576 24.6502C38.7576 37.8959 38.7576 49.6585 38.7576 62.9041C38.7576 64.8986 37.0725 66.5863 35.0811 66.5863C33.0385 66.5863 31.4043 64.9498 31.4043 62.9041C31.4043 45.4648 31.4043 29.5087 31.4043 12.0694C31.4043 9.7169 28.1872 9.7169 28.1872 12.0694C28.1872 29.5087 28.1872 45.4648 28.1872 62.9041C28.1872 64.9498 26.5532 66.5863 24.5106 66.5863C22.5191 66.5863 20.834 64.8986 20.834 62.9041C20.834 49.6585 20.834 37.8959 20.834 24.6502C20.834 22.3489 17.617 22.3489 17.617 24.6502V49.863C17.617 51.9087 15.983 53.5452 13.8894 53.5452C11.8979 53.5452 10.2128 51.8064 10.2128 49.863V37.8959C10.2128 35.4922 7.35319 35.39 7.35319 37.8959V41.1178C7.35319 43.1635 5.71915 44.8 3.67659 44.8C1.6851 44.8 0 43.1635 0 41.1178V3.6822C0 1.63653 1.6851 0 3.67659 0H55.864C57.9066 0 59.5406 1.63653 59.5406 3.6822V41.1178C59.5406 43.1123 57.8555 44.8 55.864 44.8C53.8215 44.8 52.1874 43.1123 52.1874 41.1178V37.8959C52.1874 35.39 49.3279 35.4922 49.3279 37.8959V49.863C49.3279 51.8575 47.6428 53.5452 45.6513 53.5452C43.6087 53.5452 41.9747 51.9087 41.9236 49.863L41.9747 24.6502ZM29.7702 7.72237H32.1702C33.3449 7.72237 34.264 8.69406 34.264 9.81918C34.264 27.5142 34.264 45.2091 34.264 62.9041C34.264 63.9781 35.847 63.9269 35.847 62.9041C35.847 49.4027 35.847 35.9525 35.847 22.4511C35.847 21.2237 36.7151 20.3032 37.9917 20.3032C39.5747 20.3032 41.1576 20.3032 42.7406 20.3032C43.9662 20.3032 44.8342 21.2237 44.8342 22.4V49.8119C44.8342 50.937 46.4172 50.7836 46.4172 49.8119V35.5945C46.4172 34.4183 47.3874 33.4466 48.5619 33.4466C50.0428 33.4466 51.5747 33.4466 53.0555 33.4466C54.1789 33.4466 55.047 34.5205 55.047 35.5945V41.0667C55.047 42.1406 56.63 42.0895 56.63 41.0667V4.90959C56.63 3.57991 56.2215 2.91507 54.8428 2.91507H4.64681C3.21702 2.91507 2.85957 3.57991 2.85957 4.90959V41.169C2.85957 42.1918 4.44255 42.1918 4.44255 41.169V35.6968C4.44255 34.6228 5.3617 33.5489 6.43404 33.5489C7.91489 33.5489 9.44681 33.5489 10.9277 33.5489C12.1021 33.5489 13.0723 34.5205 13.0723 35.6968V49.9142C13.0723 50.8858 14.6553 51.0393 14.6553 49.9142V22.5023C14.6553 21.2749 15.5234 20.4055 16.7489 20.4055C18.3319 20.4055 19.9149 20.4055 21.4979 20.4055C22.7745 20.4055 23.6426 21.2749 23.6426 22.5534C23.6426 36.0548 23.6426 49.505 23.6426 63.0064C23.6426 64.0292 25.2255 64.0804 25.2255 63.0064C25.2255 45.3114 25.2255 27.6164 25.2255 9.92146C25.2255 8.74521 26.1957 7.82466 27.3191 7.82466H29.7702V7.72237Z" fill="#B42323"></path> </svg> 